<svg width="12" height="12" viewBox="0 0 12 12" fill="none" xmlns="http://www.w3.org/2000/svg">
<path d="M10.3014 10.656C10.3334 11.008 10.4241 11.264 10.5734 11.424C10.7228 11.584 10.8934 11.6693 11.0854 11.68L11.0214 12C10.4774 11.968 9.7041 11.952 8.70144 11.952C7.61344 11.952 6.81344 11.968 6.30144 12L6.36544 11.68C6.7281 11.6587 7.01077 11.616 7.21344 11.552C7.4161 11.4773 7.5601 11.3493 7.64544 11.168C7.73077 10.976 7.76277 10.6987 7.74144 10.336L7.59744 7.712H4.14144L2.73344 9.712C2.3921 10.192 2.22144 10.5867 2.22144 10.896C2.22144 11.152 2.33344 11.344 2.55744 11.472C2.7921 11.5893 3.1281 11.6587 3.56544 11.68L3.48544 12C2.58944 11.968 1.8961 11.952 1.40544 11.952C1.01077 11.952 0.642771 11.968 0.301437 12L0.365437 11.68C0.642771 11.6053 0.914771 11.4453 1.18144 11.2C1.43744 10.9547 1.7681 10.5493 2.17344 9.984L8.84544 0.591999C8.94144 0.602666 9.0801 0.608 9.26144 0.608C9.45344 0.608 9.58677 0.602666 9.66144 0.591999L10.3014 10.656ZM7.58144 7.392L7.37344 3.152L4.36544 7.392H7.58144Z" fill="black"/>
</svg>
